<svg xmlns="http://www.w3.org/2000/svg" viewBox="0 0 512 512">
  <rect width="512" height="512" rx="112" fill="#111827"/>
  <path d="M112 126c48-18 99-11 144 22 45-33 96-40 144-22v250c-48-18-99-11-144 22-45-33-96-40-144-22V126Z" fill="#fff"/>
  <path d="M256 148v250" stroke="#c7d2fe" stroke-width="18"/>
  <path d="M152 190h64M152 238h64M296 190h64M296 238h64" stroke="#6366f1" stroke-width="18" stroke-linecap="round"/>
  <path d="M160 309c30 0 49 12 63 31M352 309c-30 0-49 12-63 31" fill="none" stroke="#111827" stroke-width="18" stroke-linecap="round"/>
</svg>
